<svg xmlns="http://www.w3.org/2000/svg" width="20" height="20" viewBox="0 0 1600 1600"><g fill="#292D32" opacity="0.6"><path d="M973 201.5c-46 6.4-85.8 40.1-100.9 85.1-6.4 19.1-6.2 11.2-5.9 184l.3 156.9 3.2 11.8c6.1 22.5 16.9 41.3 33.3 57.7 17.6 17.7 36.7 28.2 62.7 34.7 6.2 1.5 20.1 1.7 161.3 2 106.4.3 157.1 0 162.7-.7 38.1-5 70.5-25.9 91.5-59.1 6.5-10.2 12.5-24.9 15.9-38.9l2.4-9.5V469c0-127.6-.3-157.9-1.4-164-3.2-18.1-12.8-40.5-23-54-7-9.3-22.6-24.1-31.7-30-13.3-8.7-27.3-14.6-44.4-18.6-7-1.7-17.6-1.8-162-2-123.9-.2-156.4 0-164 1.1m320.5 66.8c15.4 5.4 27.6 16 34.5 30.1 7.5 15 7.1 5.3 6.8 172.4l-.3 149.7-2.9 7.5c-3.7 9.7-10.4 19.7-16.9 25.5-7.1 6.3-20.8 13-29.3 14.4-5 .9-47.7 1.1-156.9.9l-150-.3-7.6-3.1c-19.8-8-33-22.6-37.9-42-1.9-7.5-2-11.6-2-156.8 0-165.1-.4-154.2 6.6-168.2 8-16 23.4-28 40.9-31.9 4.9-1.1 34.2-1.3 156.5-1.2l150.5.2zM329.5 221.1c-15.6 2-33.5 8.2-47.3 16.3-32.4 19-54.2 50.8-60.7 88-2.2 13.1-2.3 267 0 281.9 1.6 11 6.7 27.3 11.6 36.9 16 32 46.2 56.5 81.4 66.1l12 3.2h279l9.1-2.2c49.9-11.9 86.1-48.6 97.1-98.5 1.7-7.8 1.8-16.4 1.8-144.8 0-126.6-.1-137.1-1.8-145.2-5.3-26.3-16.6-47.4-35-65.7-14.5-14.5-30.3-24.3-49.1-30.6-18.5-6.2-9.5-5.9-156.6-6.1-75.2-.1-137.6.2-141.5.7m278 67.2c20 7 34.2 22.6 39.5 43.3 1.9 7.5 2 11.6 2 135.3 0 139.5.2 134.7-5.9 147.3-6 12.6-16.3 22.8-29.1 28.9-12.9 6.2-7.5 6-150.8 5.7l-130.7-.3-7.6-3.1c-15.2-6.2-26.5-16.2-33.3-29.7s-6.6-7.3-6.6-149.3c0-124.8.1-128.3 2-135.9 5.7-22.3 24.4-39.9 47.5-44.5 2.2-.4 62.7-.7 134.5-.6l130.5.1zM312 866.5c-.8.2-4.9.9-9 1.5-17.1 2.8-37.8 11.9-53.1 23.5-25.7 19.2-43.1 48.1-48.4 80-1.4 9-1.6 24.9-1.3 165.5.4 154.6.4 155.6 2.5 164 12.5 50 46.8 84.2 97 96.7 6.2 1.5 20.2 1.7 162.3 2 172.8.4 164.8.7 185.7-6.2 12.6-4.2 20.2-8 31.8-15.9 22.2-15.1 39.3-37.8 48-63.9 6.7-20 6.5-14.2 6.5-179.2 0-97-.4-152-1-157.5-5.2-42-31-79-68-97.4-13.6-6.8-25.8-10.7-39.3-12.5-5.3-.8-57.1-1.1-160-1-83.7.1-152.9.3-153.7.4m312.8 66.8c16.3 4.8 30.2 16.3 37.3 31 7.4 15.4 7 5.5 6.7 172.5l-.3 149.7-2.2 5.8c-6.7 17.5-16.2 28.5-31 35.9-5.8 2.9-11.5 5-15.9 5.7-5 .9-47.8 1.1-156.9.9l-150-.3-7.6-3.1c-19.8-8-33-22.6-37.9-42-1.9-7.5-2-11.6-2-156.5 0-103.5.3-150.4 1.1-154.1 4.4-21.2 23.1-40.5 44.9-46.2 4.7-1.3 28.1-1.5 155.6-1.5l150.2-.1zM1073.5 886.6c-2.2.2-8.7 1.1-14.5 2-75.4 11.4-139.1 65.2-162.8 137.4-16.6 50.4-13 105.6 9.9 153 10.7 22.2 22.6 39 39.6 55.8 35.9 35.5 79.8 55.6 130 59.3 43.4 3.3 89.4-8.5 124.8-31.8l9-5.9 59.8 59c67.1 66.3 64.3 64.1 78.2 64 10.2 0 16.6-2.7 23-9.5 8.3-8.9 11.2-19.6 8-30.4-.9-3.2-2.4-7-3.2-8.4-.9-1.4-28.1-29.2-60.6-61.7l-58.9-59.1 6.1-9.2c38.5-58.7 43.2-135.5 12.1-200-28.9-59.8-86.4-102.3-152.1-112.6-10-1.6-40.2-2.7-48.4-1.9m32.3 65.5c60.3 6.5 109.9 52.2 121.2 111.9 2.6 13.9 3.3 26 2 38.5-3.4 35-17.7 64.5-42.8 88.7-24 23.1-55.2 36.5-89.4 38.4-40.1 2.2-80.6-14.3-109-44.4-16.4-17.5-28.7-40.9-34.3-65.8-2.4-10.6-3.1-38.7-1.1-50.4 4.7-28.5 17.3-54.1 36.9-74.7 30.4-31.8 72.4-47 116.5-42.2"></path></g></svg>