<svg width="16" height="16" viewBox="0 0 16 16" fill="none" xmlns="http://www.w3.org/2000/svg">
<g clip-path="url(#clip0_6_18804)">
<path d="M8 16C12.4183 16 16 12.4183 16 8C16 3.58172 12.4183 0 8 0C3.58172 0 0 3.58172 0 8C0 12.4183 3.58172 16 8 16Z" fill="#EC5E2A"/>
<path d="M7.54568 11.6303C7.33655 11.8394 7.05297 11.9568 6.75728 11.9568C6.46159 11.9568 6.17801 11.8394 5.96888 11.6303L3.52648 9.18711C3.31749 8.97801 3.20012 8.69446 3.2002 8.39883C3.20027 8.1032 3.31778 7.8197 3.52688 7.61071C3.73598 7.40172 4.01953 7.28435 4.31516 7.28443C4.61079 7.2845 4.89429 7.40201 5.10328 7.61111L6.56008 9.06631C6.58631 9.09263 6.61748 9.11351 6.6518 9.12776C6.68612 9.142 6.72292 9.14934 6.76008 9.14934C6.79724 9.14934 6.83403 9.142 6.86835 9.12776C6.90267 9.11351 6.93384 9.09263 6.96008 9.06631L10.8969 5.12551C11.0004 5.02198 11.1232 4.93984 11.2584 4.88379C11.3937 4.82773 11.5386 4.79887 11.685 4.79883C11.8314 4.79879 11.9763 4.82759 12.1116 4.88357C12.2468 4.93955 12.3697 5.02163 12.4733 5.12511C12.5768 5.22859 12.659 5.35145 12.715 5.48668C12.7711 5.6219 12.7999 5.76685 12.8 5.91323C12.8 6.05961 12.7712 6.20457 12.7152 6.33982C12.6592 6.47507 12.5772 6.59798 12.4737 6.70151L7.54568 11.6303Z" fill="white"/>
</g>
<defs>
<clipPath id="clip0_6_18804">
<rect width="16" height="16" fill="white"/>
</clipPath>
</defs>
</svg>
