<svg width="22" height="22" viewBox="0 0 22 22" fill="none" xmlns="http://www.w3.org/2000/svg">
<path d="M8.94753 13.1681C8.42044 12.6419 8.09961 11.9269 8.09961 11.1248C8.09961 9.51791 9.39394 8.22266 10.9999 8.22266C11.7947 8.22266 12.5262 8.54441 13.0441 9.07057" stroke="#7D7D7D" stroke-width="1.5" stroke-linecap="round" stroke-linejoin="round"/>
<path d="M13.8461 11.6406C13.6334 12.8231 12.7021 13.7563 11.5205 13.9708" stroke="#7D7D7D" stroke-width="1.5" stroke-linecap="round" stroke-linejoin="round"/>
<path d="M6.10009 16.0145C4.64534 14.8724 3.41334 13.204 2.52051 11.1241C3.42251 9.03502 4.66276 7.35752 6.12667 6.20619C7.58142 5.05485 9.25984 4.42969 10.9997 4.42969C12.7496 4.42969 14.4271 5.06402 15.891 6.2236" stroke="#7D7D7D" stroke-width="1.5" stroke-linecap="round" stroke-linejoin="round"/>
<path d="M17.827 8.24023C18.4577 9.07807 19.0123 10.0452 19.4789 11.1241C17.6758 15.3013 14.4895 17.8176 10.9997 17.8176C10.2086 17.8176 9.42854 17.6892 8.67871 17.439" stroke="#7D7D7D" stroke-width="1.5" stroke-linecap="round" stroke-linejoin="round"/>
<path d="M18.23 3.89453L3.77051 18.354" stroke="#7D7D7D" stroke-width="1.5" stroke-linecap="round" stroke-linejoin="round"/>
</svg>
