<?xml version="1.0" encoding="UTF-8"?>
<svg version="1.1" xmlns="http://www.w3.org/2000/svg" width="1080" height="1080">
<path d="M0 0 C356.4 0 712.8 0 1080 0 C1080 356.4 1080 712.8 1080 1080 C723.6 1080 367.2 1080 0 1080 C0 723.6 0 367.2 0 0 Z " fill="#FFFEFE" transform="translate(0,0)"/>
<path d="M0 0 C3.06925208 0.941545 3.99729493 1.98397162 6.03515625 4.421875 C13.9004911 12.72002714 25.71239158 17.540263 37.078125 18.1328125 C53.64650974 18.45032814 67.10400264 14.97622182 79.41015625 3.359375 C80.09722656 2.65941406 80.78429687 1.95945312 81.4921875 1.23828125 C83.59765625 -0.203125 83.59765625 -0.203125 86.296875 0.01171875 C88.59765625 0.796875 88.59765625 0.796875 89.59765625 1.796875 C90.02389418 4.99707481 89.91701135 6.36229365 87.98046875 8.99755859 C87.23539063 9.72281738 86.4903125 10.44807617 85.72265625 11.1953125 C84.49095703 12.40960938 84.49095703 12.40960938 83.234375 13.6484375 C82.36425781 14.48117187 81.49414062 15.31390625 80.59765625 16.171875 C79.75847656 16.996875 78.91929687 17.821875 78.0546875 18.671875 C73.59393732 23.0288868 69.02931626 27.22283906 64.30859375 31.29541016 C62.13652551 33.20154881 60.10941845 35.22321243 58.09765625 37.296875 C54.71653159 40.72439588 51.21999078 43.91523112 47.56640625 47.046875 C44.8324715 49.47703922 42.29081175 52.07726329 39.75 54.70703125 C36.82217035 57.54984226 33.71689671 60.16752752 30.59765625 62.796875 C31.9021875 62.76207031 33.20671875 62.72726562 34.55078125 62.69140625 C55.42530601 62.29135786 72.14449242 67.19318616 87.75390625 81.40234375 C89.59765625 83.796875 89.59765625 83.796875 90.00390625 86.47265625 C89.59765625 88.796875 89.59765625 88.796875 87.59765625 90.796875 C85.41015625 91.359375 85.41015625 91.359375 82.59765625 90.796875 C80.8094392 89.21393797 79.23480257 87.48399606 77.60546875 85.73828125 C67.55308665 76.01837093 53.86478491 72.50614957 40.32373047 72.47998047 C28.80204522 72.67841902 16.11179887 76.67182375 7.5703125 84.703125 C6.42843322 85.92246218 5.29358231 87.14844401 4.16796875 88.3828125 C1.85409937 90.46644612 -0.35988868 90.72266878 -3.40234375 90.796875 C-5.40234375 87.796875 -5.40234375 87.796875 -5.3125 85.4140625 C-4.13572202 82.03019448 -2.42384209 80.3914673 0.16015625 77.921875 C1.06636719 77.05046875 1.97257812 76.1790625 2.90625 75.28125 C5.77868408 72.62977239 8.69770783 70.04863811 11.66796875 67.5078125 C14.44010626 65.0499254 17.00316314 62.40063896 19.6015625 59.76171875 C21.51872802 57.87456756 23.49340947 56.11002125 25.53515625 54.359375 C28.52567341 51.79022229 31.32882309 49.10370244 34.09765625 46.296875 C37.44345951 42.91089914 40.8722156 39.7019396 44.48828125 36.60742188 C46.61798416 34.77942688 48.73277395 32.93551277 50.84375 31.0859375 C51.55072021 30.4667041 52.25769043 29.8474707 52.98608398 29.20947266 C53.51790283 28.74331543 54.04972168 28.2771582 54.59765625 27.796875 C53.96899658 27.81782227 53.34033691 27.83876953 52.69262695 27.86035156 C29.36140544 28.53470133 29.36140544 28.53470133 18.59765625 23.796875 C17.58832031 23.384375 16.57898438 22.971875 15.5390625 22.546875 C7.82765162 19.08901942 1.06623591 14.2709346 -4.40234375 7.796875 C-5.2734375 5.10546875 -5.2734375 5.10546875 -5.40234375 2.796875 C-3.82030022 0.16013579 -3.08170207 -0.26056668 0 0 Z " fill="#FF5406" transform="translate(479.40234375,286.203125)"/>
<path d="M0 0 C0.721875 0.2475 1.44375 0.495 2.1875 0.75 C2.87109375 3.0078125 2.87109375 3.0078125 3.1875 5.75 C2.03515625 7.7421875 2.03515625 7.7421875 0.25 9.625 C-0.3996875 10.31335938 -1.049375 11.00171875 -1.71875 11.7109375 C-4.31727271 14.24158835 -7.01119311 16.62365119 -9.77734375 18.96875 C-12.51517508 21.36500928 -15.03637039 23.94615148 -17.5625 26.5625 C-20.85635124 29.76485537 -24.33721032 32.74707979 -27.8125 35.75 C-27.29977539 35.99532471 -26.78705078 36.24064941 -26.25878906 36.4934082 C-3.58500414 47.48760463 -3.58500414 47.48760463 3.1875 56.75 C2.97289493 60.96460507 2.97289493 60.96460507 1.1875 62.75 C-2.09087505 63.20297065 -3.4298947 63.02686012 -6.14453125 61.0625 C-6.96308594 60.299375 -7.78164063 59.53625 -8.625 58.75 C-19.82029799 49.22049032 -32.55240282 44.63236007 -46.8125 41.75 C-42.49141135 36.52700189 -37.9100715 31.85048994 -32.9375 27.25 C-31.43486446 25.84899198 -29.93226112 24.44794942 -28.4296875 23.046875 C-27.6675293 22.33853516 -26.90537109 21.63019531 -26.12011719 20.90039062 C-23.84536521 18.78062598 -21.58107637 16.65029444 -19.3203125 14.515625 C-18.60472168 13.84080078 -17.88913086 13.16597656 -17.15185547 12.47070312 C-15.79315445 11.18916133 -14.43535699 9.90666066 -13.07861328 8.62304688 C-3.57129275 -0.31744824 -3.57129275 -0.31744824 0 0 Z " fill="#FF5507" transform="translate(575.8125,300.25)"/>
<path d="M0 0 C2.40234375 1.8203125 2.40234375 1.8203125 4.9375 4.125 C15.48254308 13.04991516 28.24984802 18.50541826 42 20 C40.444754 23.87478433 38.03600017 26.00524882 34.9375 28.75 C33.85168999 29.72264867 32.7671292 30.69669309 31.68359375 31.671875 C31.09433105 32.20103516 30.50506836 32.73019531 29.89794922 33.27539062 C26.38538291 36.46715399 22.94869365 39.73958492 19.5 43 C18.04705499 44.36477498 16.59393216 45.72936067 15.140625 47.09375 C12.54721533 49.53179411 9.97457536 51.98815982 7.421875 54.46875 C6.36470735 55.47929643 5.30742423 56.48972207 4.25 57.5 C2.89648438 58.81484375 2.89648438 58.81484375 1.515625 60.15625 C-1.30869021 62.226245 -2.58003323 62.52614873 -6 62 C-7 61 -7 61 -7.46875 58.37109375 C-6.78186582 53.43125168 -4.05757099 51.360585 -0.5 48.0625 C0.14203369 47.4449585 0.78406738 46.82741699 1.44555664 46.19116211 C5.28283183 42.52445402 9.20401814 38.95903416 13.25 35.5234375 C18.83088509 30.83679611 18.83088509 30.83679611 23 25 C21.1128125 24.4740625 21.1128125 24.4740625 19.1875 23.9375 C9.6283847 20.71616804 -0.76924662 13.9877988 -7 6 C-7.26953125 2.72265625 -7.26953125 2.72265625 -7 0 C-4.22083531 -1.38958235 -2.95049673 -0.90189856 0 0 Z " fill="#FF5406" transform="translate(472,301)"/>
<path d="M0 0 C3.20963993 0.40360742 4.11755938 1.29798775 6.359375 3.578125 C14.1558403 10.85875611 22.97421621 12.70321258 33.40625 12.61328125 C42.1781369 11.83236937 49.6975529 7.85830592 56.171875 2.015625 C58.609375 0.328125 58.609375 0.328125 61.359375 0.515625 C63.609375 1.328125 63.609375 1.328125 64.609375 2.328125 C65.017708 5.46751641 64.98191286 6.84244601 63.02734375 9.390625 C52.70483316 18.35728919 41.41299159 22.86658405 27.7578125 22.57421875 C18.14066078 21.8225059 10.4745441 18.83234636 2.609375 13.328125 C1.97644531 12.90273438 1.34351563 12.47734375 0.69140625 12.0390625 C-2.15402723 9.9438502 -3.3242505 8.53969372 -4.390625 5.140625 C-4.390625 1.4868293 -3.64705271 0.50057586 0 0 Z " fill="#FF5508" transform="translate(491.390625,275.671875)"/>
<path d="M0 0 C10.13858818 5.63254899 10.13858818 5.63254899 13.91796875 9.62109375 C15.33617987 14.78467151 15.33617987 14.78467151 13.91796875 17.62109375 C10.9937678 18.0490256 8.8077665 18.27848164 6.34765625 16.4609375 C5.81398438 15.95691406 5.2803125 15.45289063 4.73046875 14.93359375 C-4.07044821 6.9310321 -13.1781823 5.70734115 -24.671875 6.203125 C-33.52357507 6.86491703 -40.84003342 11.37909592 -47.08203125 17.62109375 C-49.51953125 17.80859375 -49.51953125 17.80859375 -52.08203125 17.62109375 C-54.08203125 15.62109375 -54.08203125 15.62109375 -54.4765625 13.24609375 C-53.80075573 8.74963685 -50.49496149 7.16774987 -47.02734375 4.5546875 C-33.10597727 -4.58467113 -15.44116472 -7.05139864 0 0 Z " fill="#FF5507" transform="translate(541.08203125,369.37890625)"/>
<path d="M0 0 C5.3902199 0.4146323 9.06129627 3.51941315 13.3125 6.5625 C14.05306641 7.08263672 14.79363281 7.60277344 15.55664062 8.13867188 C17.37648184 9.41843118 19.19054184 10.70562218 21 12 C17.33223602 16.40918889 13.5858837 20.54094987 9.375 24.4375 C8.45460938 25.30246094 7.53421875 26.16742188 6.5859375 27.05859375 C4 29 4 29 0 29 C-0.78774617 20.96498906 -0.78774617 20.96498906 2.5 16.9375 C3.325 16.298125 4.15 15.65875 5 15 C4.33886901 11.88090949 4.33886901 11.88090949 1.9375 10.875 C0 9 0 9 -0.26171875 6.80859375 C-0.25100841 4.52729165 -0.1716642 2.27455059 0 0 Z " fill="#FF580B" transform="translate(461,317)"/>
<path d="M0 0 C0.10815225 1.76949095 0.18566083 3.54087487 0.25 5.3125 C0.29640625 6.29863281 0.3428125 7.28476562 0.390625 8.30078125 C0 11 0 11 -2.015625 12.85546875 C-2.67046875 13.23316406 -3.3253125 13.61085938 -4 14 C-2.6910428 17.12197478 -2.6910428 17.12197478 0 19 C0 22.3 0 25.6 0 29 C-4.71996736 28.70500204 -7.36257361 26.38076417 -10.9296875 23.56640625 C-13.80544524 21.39059709 -16.83218451 19.71590006 -20 18 C-18.47790339 14.27086332 -16.25967803 12.19368821 -13.25 9.5625 C-12.35796875 8.78132813 -11.4659375 8.00015625 -10.546875 7.1953125 C-9.70640625 6.47085937 -8.8659375 5.74640625 -8 5 C-7.36578125 4.44054687 -6.7315625 3.88109375 -6.078125 3.3046875 C-2.26357143 0 -2.26357143 0 0 0 Z " fill="#FF5508" transform="translate(581,317)"/>
<path d="M0 0 C1.828125 1.484375 1.828125 1.484375 2.65625 3.59375 C2.71296875 4.21765625 2.7696875 4.8415625 2.828125 5.484375 C1.828125 6.484375 1.828125 6.484375 -1.40649414 6.59790039 C-2.84001626 6.59774131 -4.27354412 6.59204907 -5.70703125 6.58203125 C-6.83690712 6.57990883 -6.83690712 6.57990883 -7.98960876 6.57774353 C-10.4045706 6.57212876 -12.81944101 6.55957383 -15.234375 6.546875 C-16.86783721 6.5418619 -18.50130086 6.53729866 -20.13476562 6.53320312 C-24.14717085 6.52215454 -28.15950741 6.50488006 -32.171875 6.484375 C-31.3828125 1.6953125 -31.3828125 1.6953125 -29.484375 -0.203125 C-19.99228982 -5.5905247 -9.45218272 -4.93952774 0 0 Z " fill="#FF5A0E" transform="translate(536.171875,385.515625)"/>
<path d="M0 0 C11.22 0 22.44 0 34 0 C33 5 33 5 31.390625 6.36328125 C22.33918321 10.37696803 12.95894122 10.25022331 3.70703125 6.8515625 C2 6 2 6 0 4 C0 2.68 0 1.36 0 0 Z " fill="#FF5405" transform="translate(505,272)"/>
</svg>
